<?xml version="1.0" encoding="UTF-8" standalone="no"?>
<!-- Created with Inkscape (http://www.inkscape.org/) -->

<svg
   width="125.44186mm"
   height="60.282768mm"
   viewBox="0 0 125.44186 60.282768"
   version="1.1"
   id="svg22820"
   xml:space="preserve"
   inkscape:export-filename="cloud2.svg"
   inkscape:export-xdpi="96"
   inkscape:export-ydpi="96"
   xmlns:inkscape="http://www.inkscape.org/namespaces/inkscape"
   xmlns:sodipodi="http://sodipodi.sourceforge.net/DTD/sodipodi-0.dtd"
   xmlns="http://www.w3.org/2000/svg"
   xmlns:svg="http://www.w3.org/2000/svg"><sodipodi:namedview
     id="namedview22822"
     pagecolor="#000000"
     bordercolor="#000000"
     borderopacity="0.25"
     inkscape:showpageshadow="2"
     inkscape:pageopacity="0"
     inkscape:pagecheckerboard="0"
     inkscape:deskcolor="#d1d1d1"
     inkscape:document-units="mm"
     showgrid="false" /><defs
     id="defs22817" /><g
     inkscape:label="Layer 1"
     inkscape:groupmode="layer"
     id="layer1"
     transform="translate(-36.055299,-108.67926)"><g
       fill="#ffffff"
       fill-rule="evenodd"
       opacity="0.3"
       id="g24042"
       transform="matrix(-0.19044437,0,0,-0.17865796,126.3472,149.41334)"><path
         d="m 167.9359,12.9599 c 0,7.04 6.912,12.8 15.36,12.8 h 154.112 c 8.448,0 15.36,-5.76 15.36,-12.8 0,-7.04 -6.912,-12.8 -15.36,-12.8 h -154.112 c -8.448,0 -15.36,5.76 -15.36,12.8 m 258.0478,48.6396 c 0,7.04 6.912,12.801 15.36,12.801 h 17.409 c 8.447,0 15.359,-5.761 15.359,-12.801 0,-7.039 -6.912,-12.8 -15.359,-12.8 h -17.409 c -8.448,0 -15.36,5.761 -15.36,12.8 M 123.3919,12.9599 c 0,7.04 5.76,12.8 12.8,12.8 7.04,0 12.8,-5.76 12.8,-12.8 0,-7.04 -5.76,-12.8 -12.8,-12.8 -7.04,0 -12.8,5.76 -12.8,12.8 m -80.3838,99.8398 c 0,7.04 6.912,12.8 15.359,12.8 h 17.409 c 8.448,0 15.36,-5.76 15.36,-12.8 0,-7.04 -6.912,-12.8 -15.36,-12.8 h -17.409 c -8.447,0 -15.359,5.76 -15.359,12.8"
         id="path24038" /><path
         d="m 15.3597,202.4003 h 122.88 c 8.448,0 15.36,-5.761 15.36,-12.801 0,-7.039 -6.912,-12.8 -15.36,-12.8 h -6.655 c -8.449,0 -15.361,-5.759 -15.361,-12.799 0,-7.04 6.912,-12.8 15.361,-12.8 h 83.456 c 8.447,0 15.359,-5.76 15.359,-12.8 0,-7.04 -6.912,-12.801 -15.359,-12.801 h -100.353 c -8.448,0 -15.359,-5.76 -15.359,-12.8 0,-7.04 6.911,-12.799 15.359,-12.799 h 130.048 c 8.448,0 15.36,-5.76 15.36,-12.8 0,-7.04 -6.912,-12.8 -15.36,-12.8 h -107.52 c -8.448,0 -15.36,-5.761 -15.36,-12.801 0,-7.039 6.912,-12.8 15.36,-12.8 h 261.121 c 8.447,0 15.359,5.761 15.359,12.8 0,7.04 -6.912,12.801 -15.359,12.801 h -97.792 c -8.449,0 -15.361,5.76 -15.361,12.8 0,7.04 6.912,12.8 15.361,12.8 h 36.863 c 8.448,0 15.36,5.759 15.36,12.799 0,7.04 -6.912,12.8 -15.36,12.8 h 0.513 c -8.449,0 -15.361,5.761 -15.361,12.801 0,7.04 6.912,12.8 15.361,12.8 h 116.223 c 8.448,0 15.361,5.76 15.361,12.8 0,7.04 -6.913,12.799 -15.361,12.799 h -201.216 c -8.448,0 -15.36,5.761 -15.36,12.8 0,7.04 6.912,12.801 15.36,12.801 h 23.552 c 8.448,0 15.36,5.76 15.36,12.8 0,7.04 -6.912,12.8 -15.36,12.8 h -261.12 c -8.447,0 -15.359,-5.76 -15.359,-12.8 0,-7.04 6.912,-12.8 15.359,-12.8"
         id="path24040" /></g></g></svg>
