<?xml version="1.0" encoding="UTF-8" standalone="no"?>
<!-- Created with Inkscape (http://www.inkscape.org/) -->

<svg
   width="481.31952mm"
   height="230.40102mm"
   viewBox="0 0 481.31952 230.40102"
   version="1.1"
   id="svg22820"
   xml:space="preserve"
   inkscape:export-filename="cloud3.svg"
   inkscape:export-xdpi="96"
   inkscape:export-ydpi="96"
   xmlns:inkscape="http://www.inkscape.org/namespaces/inkscape"
   xmlns:sodipodi="http://sodipodi.sourceforge.net/DTD/sodipodi-0.dtd"
   xmlns="http://www.w3.org/2000/svg"
   xmlns:svg="http://www.w3.org/2000/svg"><sodipodi:namedview
     id="namedview22822"
     pagecolor="#000000"
     bordercolor="#000000"
     borderopacity="0.25"
     inkscape:showpageshadow="2"
     inkscape:pageopacity="0"
     inkscape:pagecheckerboard="0"
     inkscape:deskcolor="#d1d1d1"
     inkscape:document-units="mm"
     showgrid="false" /><defs
     id="defs22817" /><g
     inkscape:label="Layer 1"
     inkscape:groupmode="layer"
     id="layer1"
     transform="translate(-0.51650001,4.0000001e-4)"><g
       fill="#072142"
       fill-rule="evenodd"
       id="g24253"
       transform="matrix(0.1834752,0,0,-0.1834752,39.90122,143.93923)"><path
         d="m 60.0756,51.2 c -7.039,0 -12.8,5.76 -12.8,12.8 0,7.04 5.761,12.8 12.8,12.8 7.04,0 12.801,-5.76 12.801,-12.8 0,-7.04 -5.761,-12.8 -12.801,-12.8"
         id="path24247" /><path
         d="m 413.9965,204.7996 h -121.539 c -8.448,0 -15.36,-5.76 -15.36,-12.8 0,-7.04 6.912,-12.8 15.36,-12.8 h 2.499 c 8.447,0 15.359,-5.759 15.359,-12.799 0,-7.04 -6.912,-12.8 -15.359,-12.8 h -60.099 c -8.448,0 -15.36,-5.761 -15.36,-12.801 0,-7.04 6.912,-12.8 15.36,-12.8 h 110.659 c 8.448,0 15.36,-5.76 15.36,-12.8 0,-7.04 -6.912,-12.799 -15.36,-12.799 h -124.483 c -8.448,0 -15.36,-5.76 -15.36,-12.8 0,-7.04 6.912,-12.801 15.36,-12.801 h 62.402 c 8.449,0 15.361,-5.76 15.361,-12.8 0,-7.04 -6.912,-12.8 -15.361,-12.8 h 0.702 c -8.448,0 -15.36,-5.759 -15.36,-12.799 0,-7.04 6.912,-12.8 15.36,-12.8 h 81.218 c 8.449,0 15.361,-5.761 15.361,-12.801 0,-7.04 -6.912,-12.8 -15.361,-12.8 h -183.679 c -8.449,0 -15.361,5.76 -15.361,12.8 0,7.04 6.912,12.801 15.361,12.801 h 46.653 c 8.448,0 15.36,5.76 15.36,12.8 0,7.04 -6.912,12.799 -15.36,12.799 h -122.174 c -8.447,0 -15.359,5.76 -15.359,12.8 0,7.04 6.912,12.8 15.359,12.8 h 0.19 c 8.448,0 15.36,5.761 15.36,12.801 0,7.04 -6.912,12.8 -15.36,12.8 h -90.469 c -8.448,0 -15.36,5.759 -15.36,12.799 0,7.04 6.912,12.8 15.36,12.8 h 163.173 c 8.448,0 15.36,5.76 15.36,12.8 0,7.04 -6.912,12.801 -15.36,12.801 h -3.774 c -8.447,0 -15.359,5.76 -15.359,12.8 0,7.04 6.912,12.799 15.359,12.799 h 61.374 c 8.448,0 15.36,5.76 15.36,12.8 0,7.04 -6.912,12.8 -15.36,12.8 h -120.733 c -8.448,0 -15.36,5.761 -15.36,12.801 0,7.04 6.912,12.8 15.36,12.8 h 298.08 c 8.447,0 15.359,-5.76 15.359,-12.8 0,-7.04 -6.912,-12.801 -15.359,-12.801 m 52.4795,0 h -12.16 c -8.448,0 -15.36,5.761 -15.36,12.801 0,7.04 6.912,12.8 15.36,12.8 h 12.16 c 8.448,0 15.36,-5.76 15.36,-12.8 0,-7.04 -6.912,-12.801 -15.36,-12.801"
         id="path24249" /><path
         d="m 323.1156,166.4002 c 0,7.04 6.912,12.8 15.36,12.8 h 53.12 c 8.449,0 15.361,-5.76 15.361,-12.8 0,-7.04 -6.912,-12.8 -15.361,-12.8 h -53.12 c -8.448,0 -15.36,5.76 -15.36,12.8"
         id="path24251" /></g></g></svg>
